HIERARCHY
ROOT Pelvis
{
	OFFSET 0.000000 0.000000 0.000000
	CHANNELS 6 Xposition Yposition Zposition Zrotation Yrotation Xrotation 
	JOINT Left_hip
	{
		OFFSET 0.069463 -0.088608 -0.009542
		CHANNELS 3 Zrotation Yrotation Xrotation
		JOINT Left_knee
		{
			OFFSET 0.030639 -0.359740 -0.005288
			CHANNELS 3 Zrotation Yrotation Xrotation
			JOINT Left_ankle
			{
				OFFSET -0.011068 -0.376034 -0.042462
				CHANNELS 3 Zrotation Yrotation Xrotation
				JOINT Left_foot
				{
					OFFSET 0.023192 -0.053321 0.111332
					CHANNELS 3 Zrotation Yrotation Xrotation
					End Site
					{
						OFFSET 0.000000 0.000000 0.000000
					}
				}
			}
		}
	}
	JOINT Right_hip
	{
		OFFSET -0.067438 -0.088025 -0.006263
		CHANNELS 3 Zrotation Yrotation Xrotation
		JOINT Right_knee
		{
			OFFSET -0.035962 -0.366229 -0.008063
			CHANNELS 3 Zrotation Yrotation Xrotation
			JOINT Right_ankle
			{
				OFFSET 0.013608 -0.375719 -0.040481
				CHANNELS 3 Zrotation Yrotation Xrotation
				JOINT Right_foot
				{
					OFFSET -0.021034 -0.045527 0.114617
					CHANNELS 3 Zrotation Yrotation Xrotation
					End Site
					{
						OFFSET 0.000000 0.000000 0.000000
					}
				}
			}
		}
	}
	JOINT Spine1
	{
		OFFSET -0.002610 0.101823 -0.019986
		CHANNELS 3 Zrotation Yrotation Xrotation
		JOINT Spine2
		{
			OFFSET 0.004114 0.128714 -0.000938
			CHANNELS 3 Zrotation Yrotation Xrotation
			JOINT Spine3
			{
				OFFSET 0.002191 0.048470 0.027684
				CHANNELS 3 Zrotation Yrotation Xrotation
				JOINT Neck
				{
					OFFSET -0.002856 0.198873 -0.044022
					CHANNELS 3 Zrotation Yrotation Xrotation
					JOINT Head
					{
						OFFSET 0.002981 0.062960 0.049860
						CHANNELS 3 Zrotation Yrotation Xrotation
						End Site
						{
							OFFSET 0.000000 0.000000 0.000000
						}
					}
				}
				JOINT Left_collar
				{
					OFFSET 0.073708 0.112550 -0.033440
					CHANNELS 3 Zrotation Yrotation Xrotation
					JOINT Left_shoulder
					{
						OFFSET 0.083291 0.030786 -0.008013
						CHANNELS 3 Zrotation Yrotation Xrotation
						JOINT Left_elbow
						{
							OFFSET 0.245601 -0.011792 -0.027873
							CHANNELS 3 Zrotation Yrotation Xrotation
							JOINT Left_wrist
							{
								OFFSET 0.232258 0.008622 -0.000487
								CHANNELS 3 Zrotation Yrotation Xrotation
								JOINT Left_palm
								{
									OFFSET 0.077300 -0.009457 -0.012851
									CHANNELS 3 Zrotation Yrotation Xrotation
									End Site
									{
										OFFSET 0.000000 0.000000 0.000000
									}
								}
							}
						}
					}
				}
				JOINT Right_collar
				{
					OFFSET -0.075339 0.110574 -0.037874
					CHANNELS 3 Zrotation Yrotation Xrotation
					JOINT Right_shoulder
					{
						OFFSET -0.086522 0.031207 -0.009986
						CHANNELS 3 Zrotation Yrotation Xrotation
						JOINT Right_elbow
						{
							OFFSET -0.237313 -0.011478 -0.019859
							CHANNELS 3 Zrotation Yrotation Xrotation
							JOINT Right_wrist
							{
								OFFSET -0.237599 0.007976 -0.003742
								CHANNELS 3 Zrotation Yrotation Xrotation
								JOINT Right_palm
								{
									OFFSET -0.076920 -0.006943 -0.009920
									CHANNELS 3 Zrotation Yrotation Xrotation
									End Site
									{
										OFFSET 0.000000 0.000000 0.000000
									}
								}
							}
						}
					}
				}
			}
		}
	}
}
MOTION
Frames: 13
Frame Time: 0.100000
-0.323941 -0.023491 0.061243 -154.636145 -63.783558 -38.952511 -0.481400 -0.877039 -1.442144 1.515650 -5.540532 23.599500 -1.481473 8.707850 -3.659824 -5.894084 10.366830 -12.430076 1.704319 -1.129304 14.357245 -6.941050 5.853452 1.707871 1.214240 3.906119 -4.089027 9.010089 -16.138298 1.372209 3.968940 -1.278186 23.623532 -5.079253 -0.585810 0.630832 1.197242 -1.135348 -3.309081 -10.339167 -1.007416 -6.116363 -1.559035 11.308665 -13.260672 -23.901424 1.123465 1.243457 -54.300318 -12.754839 13.624567 149.058071 -62.197236 -108.346281 6.008992 -14.036326 -12.940902 1.746730 2.762445 7.766899 19.713906 3.949011 3.498207 61.282543 -5.843689 6.738667 -18.546838 21.729466 -20.898320 -0.697262 0.361135 -13.626266 1.699111 3.141227 1.825897 
-0.311867 -0.026399 0.081822 -139.915247 -72.166298 -52.556650 -1.879992 -0.161778 4.299679 2.209579 -6.962722 9.205131 -1.713671 8.548600 -2.464949 -5.552619 10.892074 -9.713435 1.797817 2.773264 12.868538 -7.318020 9.636603 4.536538 0.419926 5.848881 -5.992879 12.198462 -16.823427 1.290114 3.889437 -3.120392 22.997304 -3.971256 -0.996346 2.589383 1.500744 -1.599771 -4.159679 -9.166460 3.043401 -4.599341 -4.669062 13.244425 -12.740507 -25.243106 -0.262209 2.016401 -54.202170 -11.964306 14.493144 148.501990 -60.942823 -107.746202 5.578328 -14.961798 -11.051590 2.378007 3.228385 6.239359 21.055098 6.622657 3.080187 57.821944 0.511964 8.994637 -20.896028 23.977246 -21.753186 -0.292178 0.919724 -10.170058 0.364377 2.561510 2.028237 
-0.305676 -0.021418 0.105066 -127.614552 -73.503692 -64.647828 -3.398932 2.304750 7.610531 1.142537 -7.000211 5.393069 0.522836 8.717037 -3.742590 -8.162674 10.965054 -9.350716 -0.569715 4.345584 3.951874 -5.465752 9.109081 23.053025 0.605148 7.555313 -10.174638 12.999744 -15.578385 -0.248929 0.704800 -4.841098 23.235165 -2.111861 -2.321360 1.208552 1.425092 -3.566388 -4.233473 -5.256995 0.764944 -2.247463 -3.407609 6.543676 -7.097576 -25.038182 -0.801298 2.458244 -52.906136 -15.049200 15.237771 151.271212 -60.586391 -110.217436 6.554641 -15.019893 -8.090282 3.162168 3.582818 6.681922 23.974664 5.768937 0.886685 57.590985 2.418404 10.645444 -23.117107 26.722312 -21.093547 -2.083247 1.366248 -5.743625 -0.833789 3.004373 3.524001 
-0.297788 -0.022082 0.115543 -132.961914 -74.093936 -62.488596 -0.341877 5.034851 13.611508 0.165787 -10.257906 2.162295 -0.198601 7.900549 -4.366183 -8.354494 10.108023 -9.714114 -3.420057 1.138900 2.263009 -2.647223 0.526830 31.830041 0.154820 9.693990 -10.034790 17.172408 -18.675186 0.824058 -0.775462 -5.203168 26.513024 -1.477206 -2.900462 0.042564 1.176826 -4.386083 -4.760928 -0.897494 -13.946254 1.983113 3.190343 -10.984307 0.198380 -24.610137 -2.635917 2.506922 -51.757336 -20.783135 17.260763 159.496838 -54.664387 -114.015049 12.073596 -17.652592 -1.937082 3.852240 5.665742 6.144500 25.071409 6.869784 0.416932 60.791807 -1.795819 8.412282 -20.929449 22.932336 -20.222183 -4.690377 2.593314 -9.375414 -3.460750 2.463419 5.918134 
-0.285734 -0.025332 0.108531 -145.275774 -73.959717 -50.790701 2.792790 5.318876 15.241216 0.999697 -12.495014 0.457570 -1.725402 7.875806 -4.297980 -7.561315 6.686625 -9.188572 -4.697792 -1.305103 2.589002 -4.611788 -4.853905 30.881586 -2.840414 8.304220 -11.868749 21.405892 -23.098197 2.034805 -1.074283 -4.745179 27.375967 -0.564306 -2.449776 -2.074264 1.975371 -4.347463 -4.407655 -1.729884 -31.881970 10.364113 9.470729 -26.370783 4.848988 -22.567050 -2.155580 3.147026 -57.713744 -26.093027 22.441663 167.196972 -44.534880 -117.827835 26.250054 -18.231686 -7.215340 6.984993 6.770696 11.313655 24.035877 7.341039 1.304833 61.941794 -4.654496 4.852558 -14.579100 12.444786 -18.023894 -9.418674 2.126394 -10.837067 -9.746370 1.989858 9.366283 
-0.268754 -0.025638 0.094647 -156.419677 -70.625886 -39.679145 4.774980 4.456528 14.030769 1.409884 -14.932726 1.979966 -3.174992 7.357966 -5.130622 -5.840475 4.716008 -7.917804 -7.612011 -2.212353 6.961965 -6.674883 -4.318080 21.300384 -1.892651 6.550673 -9.082520 21.172942 -25.278616 2.354771 -0.727922 -3.863550 26.127675 0.656592 -2.967908 -2.598015 2.798722 -4.538461 -3.781047 -5.629955 -41.902320 16.185187 12.437942 -33.239913 4.784015 -21.977180 -0.144850 4.494113 -60.434148 -26.981362 23.460996 166.265460 -41.186771 -116.248918 39.071239 -16.967807 -9.081799 6.058001 6.742578 12.584059 24.219923 5.872908 1.574782 61.468264 -7.437503 2.261268 -12.684344 8.104999 -21.339055 -15.143375 1.358097 -12.013299 -11.238300 1.994764 9.396286 
-0.244395 -0.021304 0.068029 -162.025960 -67.221933 -32.529819 7.818185 3.699903 10.530701 0.204914 -16.435932 4.326766 -3.802411 5.463634 -5.511656 -4.585647 5.491100 -8.256997 -10.305315 -1.525231 10.141225 -6.326434 0.556778 13.565081 1.332588 8.931347 -4.011087 19.170537 -25.906512 0.363258 -0.751776 -3.044610 22.226279 1.445159 -3.136040 -2.636931 3.003648 -4.580003 -3.269203 -7.037939 -44.926037 18.920433 13.273788 -35.016493 3.351320 -20.982815 4.906009 4.800854 -61.194174 -25.834159 20.078401 162.412980 -42.505814 -111.311287 37.743846 -16.689152 -5.995213 4.923520 6.474841 11.647741 23.637471 2.124783 1.266954 62.057750 -7.646796 1.338944 -13.341175 7.947490 -19.612013 -14.743248 1.235829 -10.300813 -9.546507 1.982599 8.577876 
-0.217114 -0.005705 0.022544 -161.030697 -66.403190 -33.846887 10.253152 3.493531 10.424675 0.914436 -17.913714 5.319420 -4.471952 5.287720 -6.028987 -4.112674 7.671951 -8.127290 -10.047905 -0.055502 12.790629 -6.341583 7.025375 11.557748 3.856612 11.635836 -0.036298 19.955785 -25.246506 -2.254515 -1.091627 -2.688798 21.025592 0.371544 -2.047072 -1.949744 2.397179 -4.234724 -3.286103 -6.264445 -42.799053 16.495313 10.828096 -32.906018 2.450793 -22.087274 9.113436 3.584277 -57.992732 -24.225892 14.001362 157.032056 -41.177455 -104.441214 37.799859 -17.212029 -0.402331 4.465291 6.277586 10.156692 24.261997 1.045845 0.537229 61.945436 -5.477030 1.990136 -13.711704 8.744679 -18.678774 -15.421049 1.421495 -9.435098 -7.430017 1.555533 8.274660 
-0.187204 0.018903 -0.042949 -155.218416 -67.380757 -40.990933 13.182130 5.145238 12.358024 2.234881 -18.506922 5.656180 -6.987579 4.290358 -4.343178 -3.589733 12.965285 -10.577675 -7.973290 -1.603080 15.705018 -5.365017 7.174136 11.004645 -1.919515 8.285485 -9.356091 22.751664 -22.131267 -2.667020 0.659208 -3.422544 22.035694 -3.099309 0.569781 -2.060046 1.224709 -3.369716 -3.043109 -4.166885 -27.015836 5.623127 1.988188 -19.886478 1.361990 -25.547138 13.264653 -1.107239 -50.391744 -22.756456 4.560402 152.892243 -39.274524 -98.257420 35.378889 -18.596960 5.459005 8.041690 5.879883 11.551180 26.354943 0.396349 -0.577683 60.951606 -1.606631 4.558140 -12.991511 11.311450 -14.707947 -17.633482 3.088407 -5.173171 -6.717273 0.697017 10.280068 
-0.176539 0.033034 -0.110987 -157.123166 -65.048216 -38.905114 14.911848 5.703778 9.070373 4.243463 -15.730986 5.633094 -10.544699 2.838124 3.314856 -2.259007 16.003070 -14.183184 -4.942755 -3.183142 14.323197 -3.877213 6.449321 12.762991 -5.306437 6.418127 -11.503017 24.551269 -20.054703 -4.596558 4.054404 -4.835053 23.012148 -4.914116 2.933128 -1.910969 1.657736 -2.377572 -2.860714 -7.240912 -6.741325 0.745888 -7.029568 2.940824 -1.441121 -28.171514 15.149243 -4.133229 -54.268488 -22.304119 3.217869 153.458001 -36.140601 -97.124726 35.458053 -18.564912 5.810344 10.299729 4.354425 12.364914 25.820561 -0.505126 0.147431 58.045023 4.139137 6.970309 -12.306734 15.702388 -10.559384 -17.513850 5.443272 -0.006680 -6.821714 -0.189791 11.544395 
-0.180740 0.032579 -0.157483 -164.987297 -48.875455 -33.056450 10.663990 5.385675 2.462062 3.649392 -9.989347 5.120770 -11.617070 1.493949 14.023183 -3.868048 17.638145 -16.497327 -4.873742 -7.717991 19.382067 -4.298977 -1.877016 7.170649 -5.353845 2.090797 -8.080155 22.982539 -17.826262 -3.953353 5.061639 -3.081763 25.794015 -5.023835 1.589494 -0.755303 2.577318 -2.421596 -2.372920 -8.401904 2.470597 1.002479 -7.911254 13.451649 -4.727060 -25.967371 10.015867 -4.260905 -55.375336 -26.772093 6.373378 154.798230 -38.950269 -99.361146 33.444415 -18.296872 5.023372 10.874244 3.593141 11.854247 22.711870 -0.831342 0.330346 56.799682 2.247452 6.189985 -14.789288 19.015445 -14.659883 -17.685639 5.149566 -2.744134 -6.213920 -0.106973 11.076742 
-0.189922 0.038523 -0.186458 -170.980275 -28.429817 -30.568854 3.378670 4.714474 -1.190191 1.908564 -7.657132 5.224531 -9.572659 0.735849 13.735978 -6.254686 15.213389 -15.778278 -5.830724 -12.815684 24.059155 -3.388477 -11.552769 3.511453 -5.623344 -3.455130 -6.776054 21.670089 -16.105477 -1.011009 7.795289 -1.862471 29.383596 -4.047755 0.498464 -1.603038 3.502385 -1.921565 -2.137814 -10.629101 -5.698731 1.122900 -4.412168 8.305855 -6.191837 -23.807103 5.014113 -4.822837 -50.598950 -28.814925 5.005083 152.526883 -39.171608 -98.878427 35.744575 -18.894387 6.660772 9.773115 3.539592 11.596085 21.080828 0.896630 1.092068 52.470682 -5.874442 1.387284 -14.457623 16.469098 -18.469426 -18.872256 4.881547 -3.433518 -7.104370 0.678695 11.441435 
-0.199310 0.043177 -0.203688 -174.519888 -12.047879 -29.195336 -3.072260 1.652078 -2.705394 2.438336 -6.555835 11.068425 -3.684229 4.717105 6.451233 -9.165949 12.795395 -13.511159 -5.265991 -14.607745 24.864915 -3.076165 -18.457176 2.435144 -7.220712 -10.246872 -5.765249 23.050285 -16.149338 1.835760 9.435031 -1.386237 31.557952 -2.721140 1.150350 -4.913219 4.353270 -1.349876 -1.421029 -11.736850 -15.768734 0.375799 -3.608111 1.364849 -7.445696 -23.677714 7.979545 -5.582981 -44.354366 -25.862899 0.970437 149.925033 -38.776126 -97.676995 35.511805 -18.033257 5.904857 10.410947 3.390404 12.527225 22.458194 0.219638 0.348140 47.281637 -10.471262 -0.662906 -13.078169 11.317214 -22.163111 -20.717898 3.728557 -3.030025 -8.735639 1.088435 12.275458 
